<svg version="1.1" id="Layer_1" xmlns="http://www.w3.org/2000/svg" xmlns:xlink="http://www.w3.org/1999/xlink" x="0px" y="0px"
	 width="100%" viewBox="0 0 240 210" enable-background="new 0 0 240 210" xml:space="preserve">
<path fill="#FEFEFE" opacity="1.000000" stroke="none" 
	d="
M180.000000,211.000000 
	C140.979111,211.000000 101.958214,211.000000 62.464890,210.623810 
	C63.857719,205.462067 65.730293,200.679321 67.586945,195.890411 
	C74.807098,177.267242 78.560898,158.314835 73.391144,138.484558 
	C85.181488,141.956604 96.597008,145.427887 108.304321,149.071014 
	C110.036026,150.243515 111.475922,151.244171 112.994492,152.594177 
	C117.398193,157.886780 122.786392,156.608246 128.444244,155.403366 
	C129.222046,154.898468 129.697906,154.508728 130.127869,154.106445 
	C130.081970,154.093918 130.105026,154.186218 130.367477,154.092621 
	C130.791824,153.681900 130.953720,153.364777 131.073563,153.046448 
	C131.031509,153.045258 131.073685,153.118057 131.356262,152.933151 
	C133.216980,151.304001 134.795090,149.859741 136.176559,148.365173 
	C135.979904,148.314835 136.364304,148.446426 136.645660,148.391418 
	C137.276840,148.183167 137.626678,148.029938 138.345322,147.883453 
	C148.764435,144.889877 158.814743,141.889572 168.847748,139.292648 
	C165.334106,153.193161 165.430313,166.722916 169.415665,180.025726 
	C172.544647,190.470062 176.443268,200.683807 180.000000,211.000000 
z"/>
<path fill="#F96705" opacity="1.000000" stroke="none" 
	d="
M73.016327,138.483780 
	C78.560898,158.314835 74.807098,177.267242 67.586945,195.890411 
	C65.730293,200.679321 63.857719,205.462067 61.996231,210.623810 
	C61.555553,211.000000 61.111111,211.000000 60.039562,210.702820 
	C57.273777,210.271011 55.136425,210.049149 52.996181,210.016418 
	C41.705257,209.843765 30.413603,209.718796 19.231903,209.229889 
	C23.130600,202.319458 26.919592,195.756424 30.752825,189.116776 
	C29.633310,188.305145 29.162580,187.828079 28.592632,187.570755 
	C17.652719,182.631485 10.516127,174.178787 6.500124,163.088669 
	C4.611148,157.872314 3.411861,152.406204 2.186130,146.828857 
	C3.506929,144.836212 4.127522,142.497818 5.645658,141.395218 
	C13.638819,135.589905 21.791662,129.995834 30.023048,124.530182 
	C35.572697,120.845215 41.344200,117.494362 47.314308,114.150421 
	C50.450806,120.559837 44.597027,123.082153 42.682747,126.185349 
	C43.484467,128.861130 44.073483,130.827011 44.464977,133.036392 
	C48.565529,137.349152 52.863609,141.418427 57.161690,145.487686 
	C57.506031,145.195312 57.850372,144.902924 58.194714,144.610550 
	C57.951393,141.499405 57.708073,138.388275 57.888680,135.238861 
	C63.213844,136.294983 68.115089,137.389374 73.016327,138.483780 
M49.093906,190.407150 
	C52.803112,188.862564 56.512318,187.317963 60.221523,185.773376 
	C59.985081,185.275864 59.748634,184.778351 59.512188,184.280823 
	C54.801476,186.069626 50.090763,187.858444 45.380051,189.647247 
	C45.385891,189.906967 45.391727,190.166687 45.397568,190.426392 
	C46.382252,190.491302 47.366936,190.556198 49.093906,190.407150 
z"/>
<path fill="#F96704" opacity="1.000000" stroke="none" 
	d="
M180.333328,211.000000 
	C176.443268,200.683807 172.544647,190.470062 169.415665,180.025726 
	C165.430313,166.722916 165.334106,153.193161 169.148682,139.058502 
	C174.466110,137.115265 179.465317,135.809540 184.563629,134.926727 
	C184.399765,138.478668 184.136795,141.607666 183.787109,145.768387 
	C188.770935,141.876343 192.843140,138.853577 196.678268,135.555161 
	C197.362717,134.966507 197.064743,133.235565 197.133057,131.641418 
	C197.889130,129.869034 198.732529,128.487289 199.713745,126.879776 
	C198.684677,125.652107 196.358643,123.818504 195.381058,121.432419 
	C194.495804,119.271660 195.081497,116.508232 195.387115,114.014420 
	C197.507477,114.883781 199.390503,115.557396 200.987579,116.649254 
	C206.749252,120.588272 212.401688,124.686592 218.120026,128.689560 
	C223.761765,132.638916 229.496445,136.459061 235.060150,140.514511 
	C237.223511,142.091400 239.030609,144.157013 241.000000,146.000000 
	C241.000000,146.000000 241.000000,146.500000 240.664322,146.895935 
	C238.870255,152.285370 237.615173,157.349335 235.913376,162.258423 
	C231.686722,174.450806 223.721771,183.344315 211.190445,188.644485 
	C215.193329,195.800949 219.042725,202.682999 222.368164,209.673523 
	C210.276459,209.855057 198.708191,209.888535 187.141571,210.044312 
	C185.423737,210.067459 183.713669,210.667068 182.000000,211.000000 
	C181.555557,211.000000 181.111099,211.000000 180.333328,211.000000 
M192.151474,190.231140 
	C192.151474,190.231140 192.436829,190.293900 192.436829,190.293900 
	C192.436829,190.293900 192.701385,190.170181 193.441223,190.495193 
	C193.970215,190.583481 194.499207,190.671768 195.780441,191.047653 
	C200.240723,191.000244 204.700989,190.952835 209.161270,190.905426 
	C209.123459,190.293686 209.085648,189.681961 209.047836,189.070221 
	C204.693130,189.070221 200.338440,189.070221 195.262680,188.869171 
	C192.194275,187.869431 189.125870,186.869690 185.596848,185.395782 
	C181.523682,181.972137 177.450516,178.548508 173.377350,175.124878 
	C175.967377,181.016357 180.152237,185.090027 186.297165,188.001831 
	C188.170807,188.684448 190.044449,189.367050 192.151474,190.231140 
z"/>
<path fill="#FBFCFC" opacity="1.000000" stroke="none" 
	d="
M210.000000,0.999999 
	C210.750000,1.000000 211.500000,1.000000 212.641129,1.287475 
	C213.086884,1.954348 213.141510,2.333747 213.260529,3.062939 
	C214.205475,3.597110 215.086044,3.781488 215.984741,3.985032 
	C216.002869,4.004197 216.034882,4.046128 215.994095,4.390025 
	C215.963318,5.426456 215.973328,6.118990 215.569275,6.899261 
	C206.233673,8.045321 197.312149,9.103643 188.006531,10.090022 
	C186.734558,10.390023 185.846680,10.761971 184.558273,11.126339 
	C164.463303,15.054652 144.555466,18.307657 126.596367,28.962208 
	C124.982864,28.943676 123.741379,28.950970 122.364182,28.582321 
	C122.284325,27.146877 122.340187,26.087372 122.696609,24.991184 
	C123.361099,24.265760 123.725021,23.577019 124.088943,22.888277 
	C123.929871,22.784006 123.770805,22.679735 123.611732,22.575464 
	C123.063644,23.055592 122.515564,23.535717 121.720154,24.000448 
	C121.472824,23.985052 120.979767,23.934917 120.811043,23.674274 
	C118.846031,22.512589 117.049736,21.611546 115.253448,20.710503 
	C115.017410,21.180153 114.781380,21.649803 114.545349,22.119455 
	C116.567162,23.090075 118.588982,24.060696 120.690994,25.413540 
	C120.634926,27.134037 120.498672,28.472309 120.330605,30.122982 
	C118.709747,29.579487 117.759972,29.328676 116.864197,28.950108 
	C108.566589,25.443380 100.520386,21.070255 91.925980,18.606062 
	C81.190590,15.528002 70.006264,14.015680 58.960396,11.521660 
	C57.680748,10.925777 56.456451,10.635624 54.843922,10.499710 
	C53.642616,10.708529 52.829548,10.763110 51.944817,10.480325 
	C50.258045,9.973322 48.642937,9.803684 46.635330,9.689393 
	C44.760033,9.297052 43.277225,8.849364 41.602684,8.233360 
	C40.909725,8.056994 40.408508,8.048945 39.470901,8.052204 
	C35.110004,7.381760 31.185492,6.700007 27.521326,5.827529 
	C28.854450,4.091202 29.927225,2.545601 31.000000,1.000000 
	C31.000000,1.000000 31.500000,1.000000 31.773825,1.286129 
	C32.355572,1.784526 32.663494,1.996795 33.047112,2.539991 
	C34.103752,3.233465 35.084690,3.596012 36.443409,3.965839 
	C37.547459,2.982079 38.273727,1.991039 39.000000,1.000000 
	C93.687561,1.000000 148.375122,1.000000 203.584244,1.373575 
	C205.030502,2.474246 205.955200,3.201341 207.262634,3.952551 
	C208.430252,2.984442 209.215118,1.992220 210.000000,0.999999 
M129.907455,19.621950 
	C129.795959,19.587189 129.684479,19.552425 129.572983,19.517662 
	C129.668457,19.716917 129.763947,19.916172 129.924667,20.639172 
	C130.078186,20.865963 130.231720,21.092752 130.385239,21.319546 
	C130.601883,20.891186 130.818512,20.462826 131.763275,20.033642 
	C132.698288,19.779573 133.633316,19.525507 134.568329,19.271441 
	C134.326721,18.796291 134.085114,18.321140 133.843491,17.845991 
	C132.884354,18.551529 131.925201,19.257065 130.531097,19.921850 
	C130.531097,19.921850 130.095001,19.882631 129.907455,19.621950 
M152.906616,11.621519 
	C152.794662,11.586869 152.682709,11.552220 152.570755,11.517575 
	C152.666946,11.716907 152.763138,11.916238 152.972290,12.718619 
	C153.646423,12.477196 154.320572,12.235772 155.590164,12.044509 
	C156.289154,12.003915 156.988159,11.963322 157.687149,11.922731 
	C157.353516,11.427639 157.019882,10.932547 156.686264,10.437455 
	C156.126068,10.960218 155.565872,11.482982 154.367691,11.980280 
	C153.943436,11.947738 153.519165,11.915196 152.906616,11.621519 
M126.413177,21.757778 
	C125.947418,21.967602 125.481659,22.177425 125.015900,22.387247 
	C125.219933,22.808229 125.423965,23.229210 125.627991,23.650194 
	C126.096222,23.108059 126.564445,22.565926 127.481499,21.778467 
	C127.457565,21.388226 127.433640,20.997982 127.409706,20.607738 
	C127.261620,21.060537 127.113541,21.513334 126.413177,21.757778 
M94.913200,13.385522 
	C94.195129,13.224769 93.480278,13.027507 92.753685,12.963561 
	C92.686066,12.957609 92.544098,13.796522 92.436653,14.243152 
	C93.293205,14.159178 94.149765,14.075205 95.123360,14.711155 
	C100.421089,16.931643 105.718826,19.152128 111.016556,21.372614 
	C111.244324,20.860008 111.472092,20.347401 111.699860,19.834793 
	C108.355217,18.317028 105.075851,16.623730 101.641685,15.346693 
	C99.549004,14.568499 97.217834,14.431608 94.913200,13.385522 
M42.550423,4.383778 
	C44.276569,4.530811 46.002712,4.677844 47.728859,4.824877 
	C47.750961,4.225279 47.773064,3.625682 47.795166,3.026084 
	C46.075188,1.749709 44.334103,0.874720 42.550423,4.383778 
M50.499176,5.336576 
	C52.199104,5.228096 53.899033,5.119617 55.598961,5.011137 
	C55.398182,4.216835 55.197407,3.422532 54.996632,2.628229 
	C53.461632,3.289412 51.926636,3.950596 50.499176,5.336576 
M196.952286,4.915994 
	C198.156418,4.780711 199.360550,4.645428 200.564697,4.510145 
	C200.550217,4.155585 200.535751,3.801026 200.521271,3.446466 
	C199.325333,3.007448 198.129395,2.568429 196.933441,2.129408 
	C196.714722,2.956647 196.496017,3.783886 196.952286,4.915994 
M57.899082,6.737290 
	C58.856758,6.449283 59.814438,6.161275 60.772114,5.873266 
	C60.355045,5.275806 59.937981,4.678347 59.520912,4.080889 
	C58.799690,4.786686 58.078465,5.492484 57.899082,6.737290 
M189.822800,5.865288 
	C190.752045,5.677326 191.681290,5.489363 192.610519,5.301400 
	C192.608429,4.907862 192.606323,4.514323 192.604233,4.120784 
	C191.298996,3.906433 189.993774,3.692082 188.688553,3.477733 
	C188.860458,4.168920 189.032364,4.860107 189.822800,5.865288 
M66.451202,5.575428 
	C65.380806,5.703233 64.310417,5.831038 63.240021,5.958844 
	C63.307468,6.401875 63.374916,6.844905 63.442368,7.287935 
	C64.482445,6.940786 65.522530,6.593637 66.451202,5.575428 
M70.704704,6.803136 
	C69.891220,6.820386 69.077736,6.837636 68.264252,6.854886 
	C68.428497,7.451539 68.592743,8.048193 68.756989,8.644845 
	C69.460968,8.266860 70.164948,7.888876 70.704704,6.803136 
M75.677002,7.830408 
	C74.870705,7.849823 74.064407,7.869237 73.258110,7.888653 
	C73.419975,8.479759 73.581841,9.070866 73.743706,9.661974 
	C74.442604,9.285614 75.141510,8.909253 75.677002,7.830408 
M168.226166,7.660260 
	C168.258591,8.421501 168.291016,9.182744 168.323441,9.943987 
	C169.052490,9.748655 169.781540,9.553325 170.510590,9.357992 
	C169.923416,8.660871 169.336258,7.963749 168.226166,7.660260 
M79.184380,8.293452 
	C78.507767,8.715875 77.831154,9.138297 77.154533,9.560719 
	C77.568962,9.994738 77.983383,10.428758 78.397812,10.862776 
	C78.825500,10.181474 79.253197,9.500172 79.184380,8.293452 
M87.228279,12.766965 
	C87.184380,11.939208 87.140480,11.111450 87.096581,10.283693 
	C86.511955,10.430859 85.927330,10.578023 85.342705,10.725190 
	C85.734589,11.454352 86.126472,12.183515 87.228279,12.766965 
M139.065430,18.068922 
	C139.958038,17.598274 140.850662,17.127628 141.743271,16.656981 
	C141.383484,16.221708 141.023682,15.786436 140.663895,15.351164 
	C139.927887,16.242054 139.191879,17.132944 139.065430,18.068922 
M173.325317,6.293887 
	C173.034943,7.016355 172.744583,7.738823 172.454208,8.461290 
	C173.047974,8.526449 173.641724,8.591607 174.235489,8.656767 
	C174.136627,7.963249 174.037781,7.269732 173.325317,6.293887 
M183.207672,5.390980 
	C183.313065,5.923254 183.418457,6.455529 183.523834,6.987806 
	C184.184677,6.707639 184.845520,6.427473 185.506363,6.147307 
	C184.942245,5.801306 184.378128,5.455305 183.207672,5.390980 
M144.760864,14.829973 
	C144.239288,14.833257 143.717728,14.836539 143.196167,14.839819 
	C143.340958,15.421926 143.485764,16.004034 143.630554,16.586142 
	C144.044601,16.214836 144.458649,15.843531 144.760864,14.829973 
M82.894958,10.497081 
	C82.404808,10.649350 81.914665,10.801620 81.424515,10.953888 
	C81.707870,11.271832 81.991226,11.589777 82.274574,11.907724 
	C82.616379,11.582160 82.958183,11.256596 82.894958,10.497081 
M164.129120,9.468873 
	C164.143051,9.947942 164.156967,10.427011 164.170898,10.906081 
	C164.610336,10.765551 165.049759,10.625020 165.489197,10.484487 
	C165.218369,10.064113 164.947525,9.643739 164.129120,9.468873 
M177.716980,6.919290 
	C178.064560,7.246537 178.412125,7.573784 178.759705,7.901035 
	C179.045105,7.578820 179.330490,7.256605 179.615891,6.934390 
	C179.118546,6.782917 178.621201,6.631444 177.716980,6.919290 
M160.665649,10.233566 
	C160.338043,10.688725 160.010437,11.143883 159.682846,11.599046 
	C160.126389,11.677660 160.569931,11.756275 161.013474,11.834889 
	C161.094147,11.332237 161.174835,10.829584 160.665649,10.233566 
M146.289520,15.232947 
	C146.671051,15.281847 147.052582,15.330748 147.434113,15.379646 
	C147.435852,15.105860 147.437576,14.832073 147.439316,14.558287 
	C147.056412,14.601894 146.673508,14.645503 146.289520,15.232947 
M149.663910,13.962181 
	C149.914215,14.114663 150.164505,14.267145 150.414810,14.419627 
	C150.506668,14.159633 150.598526,13.899637 150.690384,13.639643 
	C150.317093,13.597613 149.943802,13.555583 149.663910,13.962181 
M113.608849,21.520674 
	C113.608849,21.520674 113.439613,21.424881 113.439613,21.424881 
	C113.439613,21.424881 113.463730,21.609726 113.608849,21.520674 
z"/>
<path fill="#FEFDFD" opacity="1.000000" stroke="none" 
	d="
M1.000001,134.000000 
	C1.000000,89.787460 1.000000,45.574924 1.000000,1.000000 
	C10.017659,1.000000 19.040171,1.000000 28.368052,1.272957 
	C27.777699,2.646826 26.881975,3.747738 25.640036,5.024576 
	C23.576599,5.907848 21.859381,6.615195 19.857674,7.439725 
	C19.857674,30.514036 19.857674,53.704063 19.461229,76.844734 
	C18.082947,77.871971 16.495632,78.809464 16.211458,80.046341 
	C12.774654,95.005165 9.530163,110.008186 6.097253,125.338753 
	C4.305931,128.451874 2.652966,131.225937 1.000001,134.000000 
z"/>
<path fill="#FDFCFC" opacity="1.000000" stroke="none" 
	d="
M213.196136,2.713146 
	C213.141510,2.333747 213.086884,1.954348 213.016129,1.287475 
	C222.308060,1.000000 231.616119,1.000000 241.000000,1.000000 
	C241.000000,45.354202 241.000000,89.708443 240.794159,134.256592 
	C239.041443,131.934036 237.494568,129.417557 236.017151,126.503029 
	C232.680206,110.643364 229.315002,95.172302 225.786453,79.738602 
	C225.513870,78.546341 224.092499,77.616722 223.170242,76.132187 
	C223.128052,54.014549 223.114960,32.329742 223.122269,10.644948 
	C223.123001,8.483282 223.556686,6.105932 219.973145,6.236378 
	C219.520691,6.062072 219.239365,5.994518 218.823120,5.628931 
	C217.797592,4.928310 216.916245,4.487218 216.034882,4.046127 
	C216.034882,4.046128 216.002869,4.004197 215.988037,3.704618 
	C215.047531,3.174407 214.121826,2.943776 213.196136,2.713146 
z"/>
<path fill="#FFFDFC" opacity="1.000000" stroke="none" 
	d="
M1.900042,147.053268 
	C3.411861,152.406204 4.611148,157.872314 6.500124,163.088669 
	C10.516127,174.178787 17.652719,182.631485 28.592632,187.570755 
	C29.162580,187.828079 29.633310,188.305145 30.752825,189.116776 
	C26.919592,195.756424 23.130600,202.319458 19.253357,209.238464 
	C19.165108,209.594437 19.143112,209.608185 18.976322,209.757065 
	C18.539686,210.270630 18.269842,210.635315 18.000000,211.000000 
	C12.364118,211.000000 6.728235,211.000000 1.000000,211.000000 
	C1.000000,189.979187 1.000000,168.958252 1.224622,147.488541 
	C1.449245,147.039764 1.900043,147.053268 1.900042,147.053268 
z"/>
<path fill="#FFFDFD" opacity="1.000000" stroke="none" 
	d="
M222.892120,209.565063 
	C219.042725,202.682999 215.193329,195.800949 211.190445,188.644485 
	C223.721771,183.344315 231.686722,174.450806 235.913376,162.258423 
	C237.615173,157.349335 238.870255,152.285370 240.664322,147.145935 
	C241.000000,168.216492 241.000000,189.432968 241.000000,211.000000 
	C235.652069,211.000000 230.296478,211.000000 224.329498,210.819275 
	C223.435898,210.291306 223.153671,209.944061 222.860260,209.589355 
	C222.849060,209.581894 222.892120,209.565063 222.892120,209.565063 
z"/>
<path fill="#EC660C" opacity="1.000000" stroke="none" 
	d="
M2.186131,146.828857 
	C1.900043,147.053268 1.449245,147.039764 1.224622,147.019882 
	C1.000000,142.975449 1.000000,138.950912 1.000001,134.463181 
	C2.652966,131.225937 4.305931,128.451874 6.437640,125.286362 
	C11.214008,122.605423 15.511633,120.315941 20.198772,118.105820 
	C22.249008,117.551201 24.017397,117.109085 25.550943,116.248482 
	C30.869633,113.263710 36.094322,110.112015 41.378361,107.064735 
	C46.639122,104.030891 47.878658,104.770927 47.952400,110.856979 
	C46.123940,111.272308 44.260918,111.695488 41.628754,112.293373 
	C44.058529,113.060356 45.537495,113.527199 47.016460,113.994049 
	C41.344200,117.494362 35.572697,120.845215 30.023048,124.530182 
	C21.791662,129.995834 13.638819,135.589905 5.645658,141.395218 
	C4.127522,142.497818 3.506929,144.836212 2.186131,146.828857 
z"/>
<path fill="#ED660B" opacity="1.000000" stroke="none" 
	d="
M235.947678,126.901070 
	C237.494568,129.417557 239.041443,131.934036 240.794159,134.725250 
	C241.000000,138.361282 241.000000,141.722580 241.000000,145.541931 
	C239.030609,144.157013 237.223511,142.091400 235.060150,140.514511 
	C229.496445,136.459061 223.761765,132.638916 218.120026,128.689560 
	C212.401688,124.686592 206.749252,120.588272 200.987579,116.649254 
	C199.390503,115.557396 197.507477,114.883781 195.552231,113.695305 
	C196.478836,113.100334 197.608841,112.828339 198.738861,112.556351 
	C198.725952,112.266251 198.713043,111.976143 198.700150,111.686043 
	C197.099548,111.426323 195.498962,111.166595 193.926178,110.911385 
	C194.421127,104.828209 195.559738,104.144264 200.474030,106.980240 
	C206.771393,110.614365 213.010345,114.350090 219.333832,117.937386 
	C219.662552,118.123878 220.546844,117.331070 221.492859,117.035851 
	C224.816589,119.171661 227.818207,121.268257 230.823914,123.359009 
	C232.528412,124.544640 234.239532,125.720695 235.947678,126.901070 
z"/>
<path fill="#FE7014" opacity="1.000000" stroke="none" 
	d="
M19.143654,209.585876 
	C30.413603,209.718796 41.705257,209.843765 52.996181,210.016418 
	C55.136425,210.049149 57.273777,210.271011 59.706230,210.702820 
	C46.979103,211.000000 33.958210,211.000000 20.313438,210.615723 
	C19.507410,210.023697 19.325262,209.815933 19.143112,209.608185 
	C19.143112,209.608185 19.165108,209.594437 19.143654,209.585876 
z"/>
<path fill="#FE7013" opacity="1.000000" stroke="none" 
	d="
M182.468658,211.000000 
	C183.713669,210.667068 185.423737,210.067459 187.141571,210.044312 
	C198.708191,209.888535 210.276459,209.855057 222.368164,209.673523 
	C222.892120,209.565063 222.849060,209.581894 222.579773,209.902802 
	C222.206970,210.482483 222.103485,210.741241 222.000000,211.000000 
	C208.979111,211.000000 195.958206,211.000000 182.468658,211.000000 
z"/>
<path fill="#EAEAEA" opacity="1.000000" stroke="none" 
	d="
M25.986254,4.848650 
	C26.881975,3.747738 27.777699,2.646826 28.836710,1.272957 
	C29.444445,1.000000 29.888889,1.000000 30.666668,1.000000 
	C29.927225,2.545601 28.854450,4.091202 27.473358,5.507607 
	C26.772114,5.201825 26.379183,5.025238 25.986254,4.848650 
z"/>
<path fill="#B3B3B7" opacity="1.000000" stroke="none" 
	d="
M38.600006,1.000000 
	C38.273727,1.991039 37.547459,2.982079 36.372795,3.670608 
	C35.592434,2.880172 35.260464,2.392248 34.948586,1.678418 
	C34.968681,1.452512 35.000000,1.000000 35.000000,1.000000 
	C36.066669,1.000000 37.133339,1.000000 38.600006,1.000000 
z"/>
<path fill="#EBEBEB" opacity="1.000000" stroke="none" 
	d="
M209.625000,0.999999 
	C209.215118,1.992220 208.430252,2.984442 207.326355,3.589518 
	C207.004883,2.468248 207.002441,1.734124 207.000000,1.000000 
	C207.750000,1.000000 208.500000,1.000000 209.625000,0.999999 
z"/>
<path fill="#A6A6AA" opacity="1.000000" stroke="none" 
	d="
M206.625000,1.000000 
	C207.002441,1.734124 207.004883,2.468248 206.943604,3.565405 
	C205.955200,3.201341 205.030502,2.474246 204.052902,1.373575 
	C204.750000,1.000000 205.500000,1.000000 206.625000,1.000000 
z"/>
<path fill="#6C6B75" opacity="1.000000" stroke="none" 
	d="
M34.625000,1.000000 
	C35.000000,1.000000 34.968681,1.452512 34.619377,1.711956 
	C33.837189,2.050620 33.404305,2.129842 32.971416,2.209063 
	C32.663494,1.996795 32.355572,1.784526 32.023827,1.286129 
	C32.750000,1.000000 33.500000,1.000000 34.625000,1.000000 
z"/>
<path fill="#F96704" opacity="1.000000" stroke="none" 
	d="
M222.333328,211.000000 
	C222.103485,210.741241 222.206970,210.482483 222.590973,209.910278 
	C223.153671,209.944061 223.435898,210.291306 223.859055,210.819275 
	C223.555557,211.000000 223.111099,211.000000 222.333328,211.000000 
z"/>
<path fill="#F96705" opacity="1.000000" stroke="none" 
	d="
M18.976322,209.757065 
	C19.325262,209.815933 19.507410,210.023697 19.844780,210.615723 
	C19.555555,211.000000 19.111111,211.000000 18.333332,211.000000 
	C18.269842,210.635315 18.539686,210.270630 18.976322,209.757065 
z"/>
<path fill="#090817" opacity="1.000000" stroke="none" 
	d="
M25.640036,5.024576 
	C26.379183,5.025238 26.772114,5.201825 27.213009,5.698334 
	C31.185492,6.700007 35.110004,7.381760 39.688839,8.258524 
	C40.645687,8.804039 40.948219,9.154544 41.250748,9.505049 
	C41.431976,9.137259 41.613201,8.769467 41.794426,8.401676 
	C43.277225,8.849364 44.760033,9.297052 47.012589,9.737886 
	C49.193718,10.093253 50.605099,10.455472 52.016476,10.817691 
	C52.829548,10.763110 53.642616,10.708529 54.892670,10.889263 
	C56.558350,11.358849 57.787052,11.593120 59.015751,11.827389 
	C70.006264,14.015680 81.190590,15.528002 91.925980,18.606062 
	C100.520386,21.070255 108.566589,25.443380 116.864197,28.950108 
	C117.759972,29.328676 118.709747,29.579487 120.330605,30.122982 
	C120.498672,28.472309 120.634926,27.134037 120.801270,25.145512 
	C120.880829,24.308477 120.930298,24.121698 120.979767,23.934917 
	C120.979767,23.934917 121.472824,23.985052 121.821732,24.255808 
	C122.245781,24.693666 122.320915,24.860767 122.396049,25.027866 
	C122.340187,26.087372 122.284325,27.146877 122.320869,28.918690 
	C124.359009,32.444359 125.646049,30.591122 126.968391,28.988033 
	C144.555466,18.307657 164.463303,15.054652 184.700363,11.427565 
	C186.292191,11.211566 187.341400,10.686765 188.390610,10.161965 
	C197.312149,9.103643 206.233673,8.045321 215.911682,6.953905 
	C217.434525,6.576695 218.200912,6.232575 218.967285,5.888458 
	C219.239365,5.994518 219.520691,6.062072 220.091125,6.635153 
	C220.913361,9.173710 221.916016,11.165652 221.927246,13.163159 
	C222.046692,34.446819 222.008926,55.731369 221.880508,77.374695 
	C221.170212,80.761360 220.072601,83.795921 220.112625,86.815399 
	C220.246002,96.877914 220.787430,106.935013 221.172485,116.994186 
	C220.546844,117.331070 219.662552,118.123878 219.333832,117.937386 
	C213.010345,114.350090 206.771393,110.614365 200.474030,106.980240 
	C195.559738,104.144264 194.421127,104.828209 193.926178,110.911385 
	C195.498962,111.166595 197.099548,111.426323 198.700150,111.686043 
	C198.713043,111.976143 198.725952,112.266251 198.738861,112.556351 
	C197.608841,112.828339 196.478836,113.100334 195.183716,113.691437 
	C195.081497,116.508232 194.495804,119.271660 195.381058,121.432419 
	C196.358643,123.818504 198.684677,125.652107 199.713745,126.879776 
	C198.732529,128.487289 197.889130,129.869034 196.924484,132.022705 
	C192.690338,133.364380 188.577423,133.934082 184.464523,134.503799 
	C179.465317,135.809540 174.466110,137.115265 169.165970,138.655121 
	C158.814743,141.889572 148.764435,144.889877 138.167282,147.673798 
	C137.201706,147.787064 136.783005,148.116745 136.364304,148.446426 
	C136.364304,148.446426 135.979904,148.314835 135.745361,148.232666 
	C134.675003,146.822250 133.113342,145.492813 133.115509,144.165924 
	C133.137726,130.633957 133.430527,117.102570 133.557877,103.570175 
	C133.562714,103.055237 132.656494,102.531715 132.100372,101.510315 
	C132.036346,98.755722 132.159348,96.492897 131.958344,94.259216 
	C131.919968,93.832947 130.602783,93.521774 129.855225,93.076920 
	C129.834869,92.996338 129.875626,92.503212 130.308975,92.818787 
	C131.208466,92.241264 132.066437,91.355362 132.083008,90.454002 
	C132.425095,71.837448 132.682434,53.219265 132.902725,34.600769 
	C132.913147,33.718605 132.426514,32.830555 132.171371,31.945246 
	C131.808701,31.998610 131.446014,32.051971 131.083344,32.105335 
	C130.910416,35.351856 130.737488,38.598381 130.222275,42.019722 
	C130.098465,43.178066 130.316925,44.161594 130.620865,45.550766 
	C130.573090,47.598042 130.439865,49.239670 129.958832,51.146950 
	C129.493561,66.668159 129.373108,81.923706 129.283325,97.179428 
	C129.281769,97.443085 129.650436,97.708923 129.923828,98.438385 
	C129.666992,115.270439 129.332657,131.637848 129.064911,148.353607 
	C129.778885,150.173981 130.426285,151.646027 131.073685,153.118057 
	C131.073685,153.118057 131.031509,153.045258 130.828598,153.157822 
	C130.452133,153.575653 130.278580,153.880936 130.105026,154.186218 
	C130.105026,154.186218 130.081970,154.093918 129.776855,154.112396 
	C129.028595,154.593414 128.585449,155.055969 128.142319,155.518524 
	C122.786392,156.608246 117.398193,157.886780 113.011559,152.157928 
	C112.935486,150.499954 112.921021,149.627594 112.957214,148.325974 
	C113.303337,140.609131 113.598808,133.321533 114.212517,125.754059 
	C114.686279,124.673096 114.976173,123.872231 114.977493,123.070892 
	C115.004791,106.484833 115.014153,89.898689 114.966476,73.312737 
	C114.963341,72.220116 114.475296,71.128899 114.148849,69.586517 
	C114.314812,58.056206 114.613846,46.976814 114.679108,35.896049 
	C114.686501,34.640392 113.378159,33.376984 112.269608,32.275852 
	C111.573853,33.515156 111.043121,34.594994 111.039673,35.676514 
	C110.986519,52.338585 110.987183,69.000923 111.034966,85.663017 
	C111.038116,86.761337 111.522285,87.858276 111.846283,89.402061 
	C111.822525,92.247620 111.735191,94.646980 111.543259,97.141235 
	C111.290703,97.513245 111.353989,97.750816 111.697449,98.341225 
	C111.671921,100.811218 111.577446,102.888840 111.107300,105.187973 
	C110.486809,107.178398 110.040863,108.946083 110.030090,110.716400 
	C109.964272,121.528618 110.093300,132.343079 109.907936,143.152512 
	C109.874908,145.078323 108.674110,146.984116 108.012527,148.899155 
	C96.597008,145.427887 85.181488,141.956604 73.391144,138.484558 
	C68.115089,137.389374 63.213844,136.294983 57.549198,135.104904 
	C52.744698,134.270447 48.703598,133.531677 44.662502,132.792892 
	C44.073483,130.827011 43.484467,128.861130 42.682747,126.185349 
	C44.597027,123.082153 50.450806,120.559837 47.314308,114.150421 
	C45.537495,113.527199 44.058529,113.060356 41.628754,112.293373 
	C44.260918,111.695488 46.123940,111.272308 47.952400,110.856979 
	C47.878658,104.770927 46.639122,104.030891 41.378361,107.064735 
	C36.094322,110.112015 30.869633,113.263710 25.550943,116.248482 
	C24.017397,117.109085 22.249008,117.551201 20.358967,117.715714 
	C20.673313,109.642776 21.615280,102.040154 21.631777,94.435532 
	C21.644459,88.589691 20.491999,82.741333 19.857674,76.894089 
	C19.857674,53.704063 19.857674,30.514036 19.857674,7.439725 
	C21.859381,6.615195 23.576599,5.907848 25.640036,5.024576 
M174.062683,53.007420 
	C168.066391,53.983166 162.070099,54.958912 155.978607,55.950146 
	C155.978607,58.837158 155.917221,60.993809 155.993378,63.145592 
	C156.100891,66.183220 157.772263,66.266151 160.081253,65.819862 
	C160.436646,67.186432 160.792038,68.553009 161.133240,69.864998 
	C176.105255,70.411682 193.641159,67.868683 195.244629,65.465141 
	C192.218445,64.295860 189.088852,63.086617 186.460831,61.216316 
	C190.923859,60.695118 195.386902,60.173923 199.598724,59.682064 
	C199.598724,56.120770 199.598724,53.237404 199.598724,49.817791 
	C194.767700,50.316654 190.372513,50.770508 185.273529,51.124916 
	C184.145462,51.396973 183.017380,51.669029 181.261124,51.917316 
	C180.849106,51.990971 180.437073,52.064625 179.257339,52.031734 
	C177.809326,52.336945 176.361298,52.642151 174.062683,53.007420 
z"/>
<path fill="#030305" opacity="1.000000" stroke="none" 
	d="
M132.174805,102.012199 
	C132.656494,102.531715 133.562714,103.055237 133.557877,103.570175 
	C133.430527,117.102570 133.137726,130.633957 133.115509,144.165924 
	C133.113342,145.492813 134.675003,146.822250 135.942017,148.283005 
	C134.795090,149.859741 133.216980,151.304001 131.356262,152.933151 
	C130.426285,151.646027 129.778885,150.173981 129.481384,148.452194 
	C130.430634,146.770798 131.521118,145.350006 131.553070,143.905807 
	C131.861923,129.943527 131.992966,115.977303 132.174805,102.012199 
z"/>
<path fill="#060607" opacity="1.000000" stroke="none" 
	d="
M112.906555,148.755234 
	C112.921021,149.627594 112.935486,150.499954 112.932884,151.808563 
	C111.475922,151.244171 110.036026,150.243515 108.304329,149.071014 
	C108.674110,146.984116 109.874908,145.078323 109.907936,143.152512 
	C110.093300,132.343079 109.964272,121.528618 110.030090,110.716400 
	C110.040863,108.946083 110.486809,107.178398 111.176132,105.655418 
	C111.439362,118.780136 111.200150,131.658752 111.159683,144.537994 
	C111.155266,145.941910 112.296638,147.349396 112.906555,148.755234 
z"/>
<path fill="#030305" opacity="1.000000" stroke="none" 
	d="
M136.645660,148.391418 
	C136.783005,148.116745 137.201706,147.787064 137.798462,147.667053 
	C137.626678,148.029938 137.276840,148.183167 136.645660,148.391418 
z"/>
<path fill="#030305" opacity="1.000000" stroke="none" 
	d="
M128.444244,155.403366 
	C128.585449,155.055969 129.028595,154.593414 129.822739,154.124924 
	C129.697906,154.508728 129.222046,154.898468 128.444244,155.403366 
z"/>
<path fill="#030305" opacity="1.000000" stroke="none" 
	d="
M130.367477,154.092621 
	C130.278580,153.880936 130.452133,153.575653 130.870651,153.159027 
	C130.953720,153.364777 130.791824,153.681900 130.367477,154.092621 
z"/>
<path fill="#FAF3F0" opacity="1.000000" stroke="none" 
	d="
M44.464977,133.036392 
	C48.703598,133.531677 52.744698,134.270447 57.125275,135.143188 
	C57.708073,138.388275 57.951393,141.499405 58.194714,144.610550 
	C57.850372,144.902924 57.506031,145.195312 57.161690,145.487686 
	C52.863609,141.418427 48.565529,137.349152 44.464977,133.036392 
z"/>
<path fill="#30120A" opacity="1.000000" stroke="none" 
	d="
M48.722763,190.514130 
	C47.366936,190.556198 46.382252,190.491302 45.397568,190.426392 
	C45.391727,190.166687 45.385891,189.906967 45.380051,189.647247 
	C50.090763,187.858444 54.801476,186.069626 59.512188,184.280823 
	C59.748634,184.778351 59.985081,185.275864 60.221523,185.773376 
	C56.512318,187.317963 52.803112,188.862564 48.722763,190.514130 
z"/>
<path fill="#F5EEEB" opacity="1.000000" stroke="none" 
	d="
M184.563629,134.926727 
	C188.577423,133.934082 192.690338,133.364380 197.011810,132.413361 
	C197.064743,133.235565 197.362717,134.966507 196.678268,135.555161 
	C192.843140,138.853577 188.770935,141.876343 183.787109,145.768387 
	C184.136795,141.607666 184.399765,138.478668 184.563629,134.926727 
z"/>
<path fill="#32160D" opacity="1.000000" stroke="none" 
	d="
M185.810654,187.581009 
	C180.152237,185.090027 175.967377,181.016357 173.377350,175.124878 
	C177.450516,178.548508 181.523682,181.972137 185.766891,186.060822 
	C185.894836,187.010895 185.852753,187.295944 185.810654,187.581009 
z"/>
<path fill="#411A0B" opacity="1.000000" stroke="none" 
	d="
M195.983765,189.070221 
	C200.338440,189.070221 204.693130,189.070221 209.047836,189.070221 
	C209.085648,189.681961 209.123459,190.293686 209.161270,190.905426 
	C204.700989,190.952835 200.240723,191.000244 195.521591,190.690338 
	C195.503082,189.912094 195.743423,189.491165 195.983765,189.070221 
z"/>
<path fill="#30140C" opacity="1.000000" stroke="none" 
	d="
M195.623230,188.969696 
	C195.743423,189.491165 195.503082,189.912094 195.145477,190.546539 
	C194.499207,190.671768 193.970215,190.583481 192.948776,190.280594 
	C192.278275,190.016266 192.098862,190.010818 191.918091,190.049652 
	C190.044449,189.367050 188.170807,188.684448 186.053909,187.791412 
	C185.852753,187.295944 185.894836,187.010895 185.997208,186.297913 
	C189.125870,186.869690 192.194275,187.869431 195.623230,188.969696 
z"/>
<path fill="#411A0B" opacity="1.000000" stroke="none" 
	d="
M192.034790,190.140396 
	C192.098862,190.010818 192.278275,190.016266 192.578857,190.118088 
	C192.701385,190.170181 192.436829,190.293900 192.436829,190.293900 
	C192.436829,190.293900 192.151474,190.231140 192.034790,190.140396 
z"/>
<path fill="#EAEAEA" opacity="1.000000" stroke="none" 
	d="
M94.993790,14.006663 
	C97.217834,14.431608 99.549004,14.568499 101.641685,15.346693 
	C105.075851,16.623730 108.355217,18.317028 111.699860,19.834793 
	C111.472092,20.347401 111.244324,20.860008 111.016556,21.372614 
	C105.718826,19.152128 100.421089,16.931643 95.061760,14.355469 
	C95.000160,13.999783 94.993790,14.006663 94.993790,14.006663 
z"/>
<path fill="#EAEAEA" opacity="1.000000" stroke="none" 
	d="
M42.476192,4.008569 
	C44.334103,0.874720 46.075188,1.749709 47.795166,3.026084 
	C47.773064,3.625682 47.750961,4.225279 47.728859,4.824877 
	C46.002712,4.677844 44.276569,4.530811 42.476192,4.008569 
z"/>
<path fill="#EAEAEA" opacity="1.000000" stroke="none" 
	d="
M50.445404,4.974177 
	C51.926636,3.950596 53.461632,3.289412 54.996632,2.628229 
	C55.197407,3.422532 55.398182,4.216835 55.598961,5.011137 
	C53.899033,5.119617 52.199104,5.228096 50.445404,4.974177 
z"/>
<path fill="#EBEBEB" opacity="1.000000" stroke="none" 
	d="
M196.614792,4.763559 
	C196.496017,3.783886 196.714722,2.956647 196.933441,2.129410 
	C198.129395,2.568429 199.325333,3.007448 200.521271,3.446466 
	C200.535751,3.801026 200.550217,4.155585 200.564697,4.510145 
	C199.360550,4.645428 198.156418,4.780711 196.614792,4.763559 
z"/>
<path fill="#EAEAEA" opacity="1.000000" stroke="none" 
	d="
M57.628159,6.467786 
	C58.078465,5.492484 58.799690,4.786686 59.520912,4.080888 
	C59.937981,4.678347 60.355045,5.275806 60.772114,5.873267 
	C59.814438,6.161275 58.856758,6.449283 57.628159,6.467786 
z"/>
<path fill="#EBEBEB" opacity="1.000000" stroke="none" 
	d="
M189.513535,5.708291 
	C189.032364,4.860107 188.860458,4.168920 188.688553,3.477732 
	C189.993774,3.692082 191.298996,3.906433 192.604233,4.120784 
	C192.606323,4.514323 192.608429,4.907862 192.610519,5.301400 
	C191.681290,5.489363 190.752045,5.677326 189.513535,5.708291 
z"/>
<path fill="#EAEAEA" opacity="1.000000" stroke="none" 
	d="
M120.811043,23.674274 
	C120.930298,24.121698 120.880829,24.308477 120.721077,24.763287 
	C118.588982,24.060696 116.567162,23.090075 114.545349,22.119455 
	C114.781380,21.649803 115.017410,21.180153 115.253448,20.710503 
	C117.049736,21.611546 118.846031,22.512589 120.811043,23.674274 
z"/>
<path fill="#EAEAEA" opacity="1.000000" stroke="none" 
	d="
M66.506905,5.910957 
	C65.522530,6.593637 64.482445,6.940786 63.442368,7.287935 
	C63.374916,6.844905 63.307468,6.401875 63.240021,5.958844 
	C64.310417,5.831038 65.380806,5.703233 66.506905,5.910957 
z"/>
<path fill="#EBEBEB" opacity="1.000000" stroke="none" 
	d="
M126.596367,28.962208 
	C125.646049,30.591122 124.359009,32.444359 122.456589,29.294628 
	C123.741379,28.950970 124.982864,28.943676 126.596367,28.962208 
z"/>
<path fill="#EAEAEA" opacity="1.000000" stroke="none" 
	d="
M70.786819,7.157014 
	C70.164948,7.888876 69.460968,8.266860 68.756989,8.644846 
	C68.592743,8.048193 68.428497,7.451539 68.264252,6.854885 
	C69.077736,6.837636 69.891220,6.820386 70.786819,7.157014 
z"/>
<path fill="#EAEAEA" opacity="1.000000" stroke="none" 
	d="
M75.758705,8.181650 
	C75.141510,8.909253 74.442604,9.285614 73.743706,9.661974 
	C73.581841,9.070866 73.419975,8.479759 73.258110,7.888653 
	C74.064407,7.869237 74.870705,7.849823 75.758705,8.181650 
z"/>
<path fill="#EBEBEB" opacity="1.000000" stroke="none" 
	d="
M168.487625,7.463444 
	C169.336258,7.963749 169.923416,8.660871 170.510590,9.357993 
	C169.781540,9.553325 169.052490,9.748655 168.323441,9.943987 
	C168.291016,9.182744 168.258591,8.421501 168.487625,7.463444 
z"/>
<path fill="#EAEAEA" opacity="1.000000" stroke="none" 
	d="
M79.432632,8.556161 
	C79.253197,9.500172 78.825500,10.181474 78.397812,10.862776 
	C77.983383,10.428758 77.568962,9.994738 77.154533,9.560719 
	C77.831154,9.138297 78.507767,8.715875 79.432632,8.556161 
z"/>
<path fill="#EAEAEA" opacity="1.000000" stroke="none" 
	d="
M51.944817,10.480325 
	C50.605099,10.455472 49.193718,10.093253 47.405083,9.682541 
	C48.642937,9.803684 50.258045,9.973322 51.944817,10.480325 
z"/>
<path fill="#EAEAEA" opacity="1.000000" stroke="none" 
	d="
M86.873322,12.839821 
	C86.126472,12.183515 85.734589,11.454352 85.342705,10.725189 
	C85.927330,10.578023 86.511955,10.430859 87.096581,10.283693 
	C87.140480,11.111450 87.184380,11.939208 86.873322,12.839821 
z"/>
<path fill="#EBEBEB" opacity="1.000000" stroke="none" 
	d="
M130.966049,19.962603 
	C131.925201,19.257065 132.884354,18.551529 133.843491,17.845991 
	C134.085114,18.321140 134.326721,18.796291 134.568329,19.271441 
	C133.633316,19.525507 132.698288,19.779573 131.381348,20.016201 
	C130.999405,19.998760 130.966049,19.962605 130.966049,19.962603 
z"/>
<path fill="#EBEBEB" opacity="1.000000" stroke="none" 
	d="
M138.760651,18.046379 
	C139.191879,17.132944 139.927887,16.242054 140.663895,15.351164 
	C141.023682,15.786436 141.383484,16.221708 141.743271,16.656981 
	C140.850662,17.127628 139.958038,17.598274 138.760651,18.046379 
z"/>
<path fill="#EBEBEB" opacity="1.000000" stroke="none" 
	d="
M173.632126,6.435051 
	C174.037781,7.269732 174.136627,7.963249 174.235489,8.656766 
	C173.641724,8.591607 173.047974,8.526449 172.454208,8.461290 
	C172.744583,7.738823 173.034943,7.016355 173.632126,6.435051 
z"/>
<path fill="#EAEAEA" opacity="1.000000" stroke="none" 
	d="
M58.960396,11.521661 
	C57.787052,11.593120 56.558350,11.358849 55.280903,10.735023 
	C56.456451,10.635624 57.680748,10.925777 58.960396,11.521661 
z"/>
<path fill="#EBEBEB" opacity="1.000000" stroke="none" 
	d="
M183.510834,5.250142 
	C184.378128,5.455305 184.942245,5.801306 185.506363,6.147306 
	C184.845520,6.427473 184.184677,6.707639 183.523834,6.987805 
	C183.418457,6.455529 183.313065,5.923254 183.510834,5.250142 
z"/>
<path fill="#EBEBEB" opacity="1.000000" stroke="none" 
	d="
M218.823120,5.628929 
	C218.200912,6.232575 217.434525,6.576695 216.325745,6.866169 
	C215.973328,6.118990 215.963318,5.426456 215.994095,4.390024 
	C216.916245,4.487218 217.797592,4.928310 218.823120,5.628929 
z"/>
<path fill="#EAEAEA" opacity="1.000000" stroke="none" 
	d="
M95.003235,13.995506 
	C94.149765,14.075205 93.293205,14.159178 92.436653,14.243153 
	C92.544098,13.796522 92.686066,12.957609 92.753685,12.963561 
	C93.480278,13.027507 94.195129,13.224769 94.953491,13.696093 
	C94.993790,14.006663 95.000160,13.999783 95.003235,13.995506 
z"/>
<path fill="#EBEBEB" opacity="1.000000" stroke="none" 
	d="
M155.005661,12.005743 
	C155.565872,11.482982 156.126068,10.960218 156.686264,10.437454 
	C157.019882,10.932547 157.353516,11.427639 157.687149,11.922729 
	C156.988159,11.963322 156.289154,12.003915 155.295074,12.022264 
	C155.000000,12.000021 155.005661,12.005741 155.005661,12.005743 
z"/>
<path fill="#EAEAEA" opacity="1.000000" stroke="none" 
	d="
M33.047112,2.539991 
	C33.404305,2.129842 33.837189,2.050620 34.599285,1.937861 
	C35.260464,2.392248 35.592434,2.880172 35.995018,3.663328 
	C35.084690,3.596012 34.103752,3.233465 33.047112,2.539991 
z"/>
<path fill="#EBEBEB" opacity="1.000000" stroke="none" 
	d="
M188.006531,10.090020 
	C187.341400,10.686765 186.292191,11.211566 185.100891,11.435143 
	C185.846680,10.761971 186.734558,10.390023 188.006531,10.090020 
z"/>
<path fill="#EBEBEB" opacity="1.000000" stroke="none" 
	d="
M144.816772,15.151100 
	C144.458649,15.843531 144.044601,16.214836 143.630554,16.586142 
	C143.485764,16.004034 143.340958,15.421926 143.196167,14.839821 
	C143.717728,14.836539 144.239288,14.833257 144.816772,15.151100 
z"/>
<path fill="#EBEBEB" opacity="1.000000" stroke="none" 
	d="
M127.032669,22.023788 
	C126.564445,22.565926 126.096222,23.108059 125.627991,23.650192 
	C125.423965,23.229210 125.219933,22.808229 125.015900,22.387249 
	C125.481659,22.177425 125.947418,21.967602 126.705383,21.877262 
	C126.997581,21.996748 127.032669,22.023788 127.032669,22.023788 
z"/>
<path fill="#EAEAEA" opacity="1.000000" stroke="none" 
	d="
M83.097473,10.714056 
	C82.958183,11.256596 82.616379,11.582160 82.274574,11.907723 
	C81.991226,11.589777 81.707870,11.271832 81.424515,10.953888 
	C81.914665,10.801620 82.404808,10.649350 83.097473,10.714056 
z"/>
<path fill="#EBEBEB" opacity="1.000000" stroke="none" 
	d="
M164.402908,9.346119 
	C164.947525,9.643739 165.218369,10.064113 165.489197,10.484488 
	C165.049759,10.625020 164.610336,10.765551 164.170898,10.906080 
	C164.156967,10.427011 164.143051,9.947942 164.402908,9.346119 
z"/>
<path fill="#EBEBEB" opacity="1.000000" stroke="none" 
	d="
M177.920410,6.699631 
	C178.621201,6.631444 179.118546,6.782917 179.615891,6.934390 
	C179.330490,7.256605 179.045105,7.578820 178.759705,7.901033 
	C178.412125,7.573784 178.064560,7.246537 177.920410,6.699631 
z"/>
<path fill="#EBEBEB" opacity="1.000000" stroke="none" 
	d="
M160.960587,10.280249 
	C161.174835,10.829584 161.094147,11.332237 161.013474,11.834890 
	C160.569931,11.756275 160.126389,11.677660 159.682846,11.599044 
	C160.010437,11.143883 160.338043,10.688725 160.960587,10.280249 
z"/>
<path fill="#EBEBEB" opacity="1.000000" stroke="none" 
	d="
M146.290070,14.961029 
	C146.673508,14.645503 147.056412,14.601894 147.439316,14.558287 
	C147.437576,14.832073 147.435852,15.105860 147.434113,15.379646 
	C147.052582,15.330748 146.671051,15.281847 146.290070,14.961029 
z"/>
<path fill="#EBEBEB" opacity="1.000000" stroke="none" 
	d="
M122.696609,24.991184 
	C122.320915,24.860767 122.245781,24.693666 122.069061,24.271204 
	C122.515564,23.535717 123.063644,23.055592 123.611732,22.575464 
	C123.770805,22.679735 123.929871,22.784006 124.088943,22.888277 
	C123.725021,23.577019 123.361099,24.265760 122.696609,24.991184 
z"/>
<path fill="#EBEBEB" opacity="1.000000" stroke="none" 
	d="
M154.997345,11.997185 
	C154.320572,12.235772 153.646423,12.477196 152.977509,12.361700 
	C152.982727,12.004781 153.094910,11.882654 153.094910,11.882654 
	C153.519165,11.915196 153.943436,11.947738 154.686676,11.993011 
	C155.005661,12.005741 155.000000,12.000021 154.997345,11.997185 
z"/>
<path fill="#EBEBEB" opacity="1.000000" stroke="none" 
	d="
M213.260529,3.062938 
	C214.121826,2.943776 215.047531,3.174407 215.969910,3.685452 
	C215.086044,3.781488 214.205475,3.597110 213.260529,3.062938 
z"/>
<path fill="#EAEAEA" opacity="1.000000" stroke="none" 
	d="
M41.602684,8.233360 
	C41.613201,8.769467 41.431976,9.137259 41.250748,9.505049 
	C40.948219,9.154544 40.645687,8.804039 40.125221,8.247215 
	C40.408508,8.048945 40.909725,8.056994 41.602684,8.233360 
z"/>
<path fill="#EBEBEB" opacity="1.000000" stroke="none" 
	d="
M149.617218,13.737867 
	C149.943802,13.555583 150.317093,13.597613 150.690384,13.639643 
	C150.598526,13.899637 150.506668,14.159633 150.414810,14.419628 
	C150.164505,14.267145 149.914215,14.114663 149.617218,13.737867 
z"/>
<path fill="#EBEBEB" opacity="1.000000" stroke="none" 
	d="
M130.095001,19.882631 
	C130.095001,19.882631 130.531097,19.921850 130.748566,19.942226 
	C130.966049,19.962605 130.999405,19.998760 131.017273,20.016613 
	C130.818512,20.462826 130.601883,20.891186 130.385239,21.319544 
	C130.231720,21.092752 130.078186,20.865963 129.953735,20.321936 
	C129.982803,20.004700 130.095001,19.882631 130.095001,19.882631 
z"/>
<path fill="#EBEBEB" opacity="1.000000" stroke="none" 
	d="
M126.981522,21.981440 
	C127.113541,21.513334 127.261620,21.060537 127.409706,20.607738 
	C127.433640,20.997982 127.457565,21.388226 127.257080,21.901127 
	C127.032669,22.023788 126.997581,21.996748 126.981522,21.981440 
z"/>
<path fill="#EAEAEA" opacity="1.000000" stroke="none" 
	d="
M113.536285,21.565201 
	C113.463730,21.609726 113.439613,21.424881 113.439613,21.424881 
	C113.439613,21.424881 113.608849,21.520674 113.536285,21.565201 
z"/>
<path fill="#EBEBEB" opacity="1.000000" stroke="none" 
	d="
M152.921036,12.060175 
	C152.763138,11.916238 152.666946,11.716907 152.570755,11.517573 
	C152.682709,11.552220 152.794662,11.586869 153.000763,11.752087 
	C153.094910,11.882654 152.982727,12.004781 152.921036,12.060175 
z"/>
<path fill="#EBEBEB" opacity="1.000000" stroke="none" 
	d="
M129.921112,20.060064 
	C129.763947,19.916172 129.668457,19.716917 129.572983,19.517662 
	C129.684479,19.552425 129.795959,19.587189 130.001221,19.752291 
	C130.095001,19.882631 129.982803,20.004700 129.921112,20.060064 
z"/>
<path fill="#F66707" opacity="1.000000" stroke="none" 
	d="
M19.461229,76.844734 
	C20.491999,82.741333 21.644459,88.589691 21.631777,94.435532 
	C21.615280,102.040154 20.673313,109.642776 19.969452,117.636353 
	C15.511633,120.315941 11.214008,122.605423 6.575997,124.947296 
	C9.530163,110.008186 12.774654,95.005165 16.211458,80.046341 
	C16.495632,78.809464 18.082947,77.871971 19.461229,76.844734 
z"/>
<path fill="#F76707" opacity="1.000000" stroke="none" 
	d="
M221.492859,117.035851 
	C220.787430,106.935013 220.246002,96.877914 220.112625,86.815399 
	C220.072601,83.795921 221.170212,80.761360 222.184998,77.280167 
	C222.817230,76.739426 223.011139,76.652229 223.205063,76.565025 
	C224.092499,77.616722 225.513870,78.546341 225.786453,79.738602 
	C229.315002,95.172302 232.680206,110.643364 236.017151,126.503029 
	C234.239532,125.720695 232.528412,124.544640 230.823914,123.359009 
	C227.818207,121.268257 224.816589,119.171661 221.492859,117.035851 
z"/>
<path fill="#020102" opacity="1.000000" stroke="none" 
	d="
M223.170242,76.132187 
	C223.011139,76.652229 222.817230,76.739426 222.318848,76.921143 
	C222.008926,55.731369 222.046692,34.446819 221.927246,13.163159 
	C221.916016,11.165652 220.913361,9.173710 220.253021,6.780408 
	C223.556686,6.105932 223.123001,8.483282 223.122269,10.644948 
	C223.114960,32.329742 223.128052,54.014549 223.170242,76.132187 
z"/>
<path fill="#D4D4D6" opacity="1.000000" stroke="none" 
	d="
M112.957214,148.325974 
	C112.296638,147.349396 111.155266,145.941910 111.159683,144.537994 
	C111.200150,131.658752 111.439362,118.780136 111.551804,105.433899 
	C111.577446,102.888840 111.671921,100.811218 111.763321,98.116890 
	C111.760239,97.500175 111.647865,97.046333 111.647865,97.046333 
	C111.735191,94.646980 111.822525,92.247620 111.906784,88.940048 
	C112.162453,69.393616 112.421188,50.755390 112.679916,32.117168 
	C113.378159,33.376984 114.686501,34.640392 114.679108,35.896049 
	C114.613846,46.976814 114.314812,58.056206 114.089020,70.049355 
	C114.026855,89.319786 113.960564,107.676865 113.894272,126.033943 
	C113.598808,133.321533 113.303337,140.609131 112.957214,148.325974 
z"/>
<path fill="#0C0712" opacity="1.000000" stroke="none" 
	d="
M185.959259,61.877373 
	C189.088852,63.086617 192.218445,64.295860 195.244629,65.465141 
	C193.641159,67.868683 176.105255,70.411682 161.133240,69.864998 
	C160.792038,68.553009 160.436646,67.186432 160.358124,65.278336 
	C159.625183,62.474674 158.615356,60.212547 157.250519,57.155193 
	C160.128830,57.155193 161.549545,57.155193 162.737213,57.392662 
	C158.421448,58.784908 160.546173,60.512005 162.149841,62.558125 
	C165.802551,63.011078 169.389603,63.090912 172.832489,63.465324 
	C173.226166,64.794083 173.764023,65.828255 174.301880,66.862442 
	C175.202957,65.296715 176.104019,63.730999 177.352631,62.103119 
	C178.512711,61.533672 179.325256,61.026390 180.581879,60.381351 
	C181.326126,60.166119 181.626266,60.088634 182.069244,60.321815 
	C183.461136,61.047447 184.710205,61.462410 185.959259,61.877373 
M165.624344,65.762115 
	C165.140900,65.890289 164.657440,66.018471 164.173996,66.146652 
	C164.346878,66.525887 164.519760,66.905121 164.692642,67.284363 
	C165.026291,66.961014 165.359940,66.637665 165.624344,65.762115 
M182.587463,65.516846 
	C182.587463,65.516846 182.477371,65.582420 182.587463,65.516846 
z"/>
<path fill="#E2E2E3" opacity="1.000000" stroke="none" 
	d="
M130.306641,50.881294 
	C130.439865,49.239670 130.573090,47.598042 130.702805,45.142754 
	C130.654373,43.501026 130.609467,42.672962 130.564560,41.844902 
	C130.737488,38.598381 130.910416,35.351856 131.083344,32.105335 
	C131.446014,32.051971 131.808701,31.998610 132.171371,31.945246 
	C132.426514,32.830555 132.913147,33.718605 132.902725,34.600769 
	C132.682434,53.219265 132.425095,71.837448 132.083008,90.454002 
	C132.066437,91.355362 131.208466,92.241264 130.379761,92.318619 
	C130.113678,77.962349 130.210159,64.421822 130.306641,50.881294 
z"/>
<path fill="#E2E2E3" opacity="1.000000" stroke="none" 
	d="
M132.100372,101.510315 
	C131.992966,115.977303 131.861923,129.943527 131.553070,143.905807 
	C131.521118,145.350006 130.430634,146.770798 129.414795,148.103851 
	C129.332657,131.637848 129.666992,115.270439 129.994324,98.042046 
	C129.950073,95.839874 129.912827,94.498688 129.875595,93.157494 
	C130.602783,93.521774 131.919968,93.832947 131.958344,94.259216 
	C132.159348,96.492897 132.036346,98.755722 132.100372,101.510315 
z"/>
<path fill="#CE621A" opacity="1.000000" stroke="none" 
	d="
M186.210052,61.546844 
	C184.710205,61.462410 183.461136,61.047447 182.304901,60.085838 
	C183.267151,59.350666 184.136581,59.162140 185.254028,59.018784 
	C185.662674,59.014503 185.823288,58.965050 186.351700,58.952637 
	C188.132629,58.699478 189.545776,58.409279 191.374084,58.183914 
	C193.783524,57.828140 195.777771,57.407528 197.844818,56.593670 
	C197.869370,55.138031 197.821106,54.075634 197.701630,52.709507 
	C196.813599,52.317574 195.996796,52.229374 194.793732,52.084824 
	C192.926300,52.260811 191.445114,52.493145 189.604584,52.808784 
	C188.521561,53.019669 187.797897,53.147251 186.769104,53.235458 
	C186.054565,53.174492 185.645157,53.152889 184.861145,53.076752 
	C183.329758,53.288227 182.172989,53.554241 180.760742,53.872314 
	C180.333344,53.898838 180.161407,53.873302 179.988083,53.623310 
	C179.986694,53.398849 179.980316,52.949966 179.987152,52.746803 
	C179.993988,52.543640 180.025055,52.138279 180.025055,52.138279 
	C180.437073,52.064625 180.849106,51.990971 181.937820,51.968758 
	C183.735458,51.754921 184.856384,51.489647 185.977325,51.224369 
	C190.372513,50.770508 194.767700,50.316654 199.598724,49.817791 
	C199.598724,53.237404 199.598724,56.120770 199.598724,59.682064 
	C195.386902,60.173923 190.923859,60.695118 186.210052,61.546844 
z"/>
<path fill="#DC6819" opacity="1.000000" stroke="none" 
	d="
M179.980316,52.949966 
	C179.980316,52.949966 179.986694,53.398849 179.631042,53.716240 
	C178.342468,54.319191 177.409576,54.604744 176.394684,54.787506 
	C176.312714,54.684715 176.067657,54.780033 175.646988,54.745464 
	C172.818802,55.150002 170.411285,55.589104 167.659882,55.993629 
	C166.867676,56.054684 166.419342,56.150314 165.736771,56.219772 
	C165.502518,56.193604 165.035507,56.258045 164.739990,56.226448 
	C163.953079,56.514969 163.461685,56.835083 162.970276,57.155197 
	C161.549545,57.155193 160.128830,57.155193 157.250519,57.155193 
	C158.615356,60.212547 159.625183,62.474674 160.317780,64.937790 
	C157.772263,66.266151 156.100891,66.183220 155.993378,63.145592 
	C155.917221,60.993809 155.978607,58.837158 155.978607,55.950146 
	C162.070099,54.958912 168.066391,53.983166 174.910568,52.999859 
	C177.165741,52.978188 178.573029,52.964077 179.980316,52.949966 
z"/>
<path fill="#000000" opacity="1.000000" stroke="none" 
	d="
M112.269608,32.275852 
	C112.421188,50.755390 112.162453,69.393616 111.843216,88.493851 
	C111.522285,87.858276 111.038116,86.761337 111.034966,85.663017 
	C110.987183,69.000923 110.986519,52.338585 111.039673,35.676514 
	C111.043121,34.594994 111.573853,33.515156 112.269608,32.275852 
z"/>
<path fill="#000001" opacity="1.000000" stroke="none" 
	d="
M114.212517,125.754059 
	C113.960564,107.676865 114.026855,89.319786 114.152969,70.499863 
	C114.475296,71.128899 114.963341,72.220116 114.966476,73.312737 
	C115.014153,89.898689 115.004791,106.484833 114.977493,123.070892 
	C114.976173,123.872231 114.686279,124.673096 114.212517,125.754059 
z"/>
<path fill="#000003" opacity="1.000000" stroke="none" 
	d="
M129.855225,93.076920 
	C129.912827,94.498688 129.950073,95.839874 129.916840,97.577408 
	C129.650436,97.708923 129.281769,97.443085 129.283325,97.179428 
	C129.373108,81.923706 129.493561,66.668159 129.958847,51.146950 
	C130.210159,64.421822 130.113678,77.962349 129.946411,92.003044 
	C129.875626,92.503212 129.834869,92.996338 129.855225,93.076920 
z"/>
<path fill="#B1541A" opacity="1.000000" stroke="none" 
	d="
M179.987152,52.746803 
	C178.573029,52.964077 177.165741,52.978188 175.335876,52.969826 
	C176.361298,52.642151 177.809326,52.336945 179.641205,52.085007 
	C180.025055,52.138279 179.993988,52.543640 179.987152,52.746803 
z"/>
<path fill="#B1541A" opacity="1.000000" stroke="none" 
	d="
M185.625427,51.174644 
	C184.856384,51.489647 183.735458,51.754921 182.251923,51.980640 
	C183.017380,51.669029 184.145462,51.396973 185.625427,51.174644 
z"/>
<path fill="#000003" opacity="1.000000" stroke="none" 
	d="
M130.222275,42.019722 
	C130.609467,42.672962 130.654373,43.501026 130.617340,44.737103 
	C130.316925,44.161594 130.098465,43.178066 130.222275,42.019722 
z"/>
<path fill="#060607" opacity="1.000000" stroke="none" 
	d="
M111.543259,97.141235 
	C111.647865,97.046333 111.760239,97.500175 111.694374,97.724510 
	C111.353989,97.750816 111.290703,97.513245 111.543259,97.141235 
z"/>
<path fill="#090817" opacity="1.000000" stroke="none" 
	d="
M165.971024,56.245949 
	C166.419342,56.150314 166.867676,56.054684 167.911423,56.265129 
	C171.027115,55.974152 173.547394,55.377094 176.067657,54.780037 
	C176.067657,54.780033 176.312714,54.684715 176.876694,54.814045 
	C179.926514,54.540596 182.412354,54.137814 184.969666,53.576878 
	C185.041153,53.418724 185.235748,53.131287 185.235748,53.131287 
	C185.645157,53.152889 186.054565,53.174492 187.006500,53.445229 
	C188.696609,53.480972 189.844177,53.267586 191.341400,52.980667 
	C192.640137,52.890324 193.589249,52.873505 194.944183,52.898285 
	C196.157639,52.964333 196.965240,52.988785 197.772858,53.013237 
	C197.821106,54.075634 197.869370,55.138031 197.438782,56.597595 
	C194.959610,57.369537 192.959259,57.744308 190.958908,58.119080 
	C189.545776,58.409279 188.132629,58.699478 186.257034,58.798576 
	C185.531723,58.729515 185.268875,58.851555 185.006027,58.973602 
	C184.136581,59.162140 183.267151,59.350666 182.162064,59.775173 
	C181.626266,60.088634 181.326126,60.166119 180.403351,60.246376 
	C179.525101,60.091763 179.254623,59.966385 178.699829,59.617195 
	C174.946747,59.928310 171.463181,60.495255 167.699280,61.219345 
	C166.607056,61.537266 165.795181,61.698048 164.885834,61.713066 
	C164.528091,61.684238 164.267792,61.801167 163.695312,62.013313 
	C162.950165,62.134018 162.517197,62.159512 162.084213,62.185005 
	C160.546173,60.512005 158.421448,58.784908 162.737213,57.392662 
	C163.461685,56.835083 163.953079,56.514969 164.832825,56.354424 
	C165.221161,56.513996 165.649200,56.573452 165.649200,56.573452 
	C165.649200,56.573452 165.971024,56.245949 165.971024,56.245949 
z"/>
<path fill="#CC621D" opacity="1.000000" stroke="none" 
	d="
M164.983292,61.858826 
	C165.795181,61.698048 166.607056,61.537266 168.143463,61.284267 
	C172.235107,60.752369 175.602219,60.312691 178.969330,59.873016 
	C179.254623,59.966385 179.525101,60.091763 179.959259,60.384125 
	C179.325256,61.026390 178.512711,61.533672 176.996994,62.062511 
	C175.188095,62.446293 174.082382,62.808521 172.976669,63.170746 
	C169.389603,63.090912 165.802551,63.011078 162.149841,62.558125 
	C162.517197,62.159512 162.950165,62.134018 163.942200,62.046562 
	C164.501266,61.984596 164.983292,61.858826 164.983292,61.858826 
z"/>
<path fill="#090817" opacity="1.000000" stroke="none" 
	d="
M172.832489,63.465324 
	C174.082382,62.808521 175.188095,62.446293 176.649445,62.124672 
	C176.104019,63.730999 175.202957,65.296715 174.301880,66.862442 
	C173.764023,65.828255 173.226166,64.794083 172.832489,63.465324 
z"/>
<path fill="#090817" opacity="1.000000" stroke="none" 
	d="
M165.658966,66.038223 
	C165.359940,66.637665 165.026291,66.961014 164.692642,67.284363 
	C164.519760,66.905121 164.346878,66.525887 164.173996,66.146652 
	C164.657440,66.018471 165.140900,65.890289 165.658966,66.038223 
z"/>
<path fill="#090817" opacity="1.000000" stroke="none" 
	d="
M182.532410,65.549637 
	C182.477371,65.582420 182.587463,65.516846 182.532410,65.549637 
z"/>
<path fill="#0C0712" opacity="1.000000" stroke="none" 
	d="
M184.898193,53.735031 
	C182.412354,54.137814 179.926514,54.540596 176.958679,54.916836 
	C177.409576,54.604744 178.342468,54.319191 179.632416,53.940704 
	C180.161407,53.873302 180.333344,53.898838 181.147522,53.914192 
	C182.825912,53.847691 183.862061,53.791363 184.898193,53.735031 
z"/>
<path fill="#0C0712" opacity="1.000000" stroke="none" 
	d="
M191.374084,58.183914 
	C192.959259,57.744308 194.959610,57.369537 197.365997,56.990837 
	C195.777771,57.407528 193.783524,57.828140 191.374084,58.183914 
z"/>
<path fill="#B1541A" opacity="1.000000" stroke="none" 
	d="
M194.538345,52.856689 
	C193.589249,52.873505 192.640137,52.890324 191.083191,52.902313 
	C190.304871,52.840153 190.134399,52.782818 189.963943,52.725487 
	C191.445114,52.493145 192.926300,52.260811 194.618973,52.250637 
	C194.830475,52.472801 194.538345,52.856689 194.538345,52.856689 
z"/>
<path fill="#B1541A" opacity="1.000000" stroke="none" 
	d="
M184.969666,53.576881 
	C183.862061,53.791363 182.825912,53.847691 181.403000,53.862137 
	C182.172989,53.554241 183.329758,53.288227 184.861145,53.076752 
	C185.235748,53.131287 185.041153,53.418724 184.969666,53.576881 
z"/>
<path fill="#0C0712" opacity="1.000000" stroke="none" 
	d="
M189.604584,52.808788 
	C190.134399,52.782818 190.304871,52.840153 190.733551,52.975842 
	C189.844177,53.267586 188.696609,53.480972 187.311646,53.484596 
	C187.797897,53.147251 188.521561,53.019669 189.604584,52.808788 
z"/>
<path fill="#0C0712" opacity="1.000000" stroke="none" 
	d="
M194.944183,52.898285 
	C194.538345,52.856689 194.830475,52.472801 195.005234,52.306984 
	C195.996796,52.229374 196.813599,52.317574 197.701630,52.709507 
	C196.965240,52.988785 196.157639,52.964333 194.944183,52.898285 
z"/>
<path fill="#0C0712" opacity="1.000000" stroke="none" 
	d="
M185.254028,59.018776 
	C185.268875,58.851555 185.531723,58.729515 185.889236,58.761536 
	C185.823288,58.965050 185.662674,59.014503 185.254028,59.018776 
z"/>
<path fill="#0C0712" opacity="1.000000" stroke="none" 
	d="
M175.646988,54.745468 
	C173.547394,55.377094 171.027115,55.974152 168.255310,56.299706 
	C170.411285,55.589104 172.818802,55.150002 175.646988,54.745468 
z"/>
<path fill="#0C0712" opacity="1.000000" stroke="none" 
	d="
M165.736771,56.219776 
	C165.971024,56.245949 165.649200,56.573452 165.649200,56.573452 
	C165.649200,56.573452 165.221161,56.513996 165.128326,56.386021 
	C165.035507,56.258045 165.502518,56.193604 165.736771,56.219776 
z"/>
<path fill="#0C0712" opacity="1.000000" stroke="none" 
	d="
M178.699829,59.617191 
	C175.602219,60.312691 172.235107,60.752369 168.423798,61.127121 
	C171.463181,60.495255 174.946747,59.928310 178.699829,59.617191 
z"/>
<path fill="#0C0712" opacity="1.000000" stroke="none" 
	d="
M164.885834,61.713066 
	C164.983292,61.858826 164.501266,61.984596 164.254379,61.951347 
	C164.267792,61.801167 164.528091,61.684238 164.885834,61.713066 
z"/>
</svg>